<?xml version="1.0" encoding="UTF-8" standalone="no"?>
<!-- Created with Inkscape (http://www.inkscape.org/) -->

<svg
   width="1063.8108"
   height="487.2373"
   viewBox="0 0 281.4666 128.91487"
   version="1.1"
   id="svg7454"
   inkscape:version="1.1 (c4e8f9e, 2021-05-24)"
   sodipodi:docname="jamstats_logo.svg"
   inkscape:export-filename="/Users/damonmay/derby/jamstats/resources/jamstats_logo.png"
   inkscape:export-xdpi="90"
   inkscape:export-ydpi="90"
   xmlns:inkscape="http://www.inkscape.org/namespaces/inkscape"
   xmlns:sodipodi="http://sodipodi.sourceforge.net/DTD/sodipodi-0.dtd"
   xmlns="http://www.w3.org/2000/svg"
   xmlns:svg="http://www.w3.org/2000/svg">
  <sodipodi:namedview
     id="namedview7456"
     pagecolor="#ffffff"
     bordercolor="#666666"
     borderopacity="1.0"
     inkscape:pageshadow="2"
     inkscape:pageopacity="0"
     inkscape:pagecheckerboard="0"
     inkscape:document-units="px"
     showgrid="false"
     inkscape:zoom="0.55678311"
     inkscape:cx="530.72731"
     inkscape:cy="220.01386"
     inkscape:window-width="1312"
     inkscape:window-height="847"
     inkscape:window-x="47"
     inkscape:window-y="25"
     inkscape:window-maximized="0"
     inkscape:current-layer="layer1"
     units="px"
     fit-margin-top="0"
     fit-margin-left="0"
     fit-margin-right="0"
     fit-margin-bottom="0" />
  <defs
     id="defs7451" />
  <g
     inkscape:label="Layer 1"
     inkscape:groupmode="layer"
     id="layer1"
     transform="translate(-16.858713,-27.937626)">
    <rect
       style="fill:#ffffff;fill-opacity:1;stroke:#000000;stroke-width:3.96875;stroke-linecap:round;stroke-linejoin:round;stroke-miterlimit:4;stroke-dasharray:none"
       id="rect951"
       width="277.49786"
       height="124.94612"
       x="18.843088"
       y="29.922001"
       ry="22.223738" />
    <path
       style="fill:none;stroke:#000000;stroke-width:3.47816;stroke-linecap:round;stroke-linejoin:round;stroke-miterlimit:4;stroke-dasharray:none;stroke-opacity:1"
       d="m 58.452077,42.519648 c 25.276693,-0.08162 0,0 25.276693,-0.08162"
       id="path1414"
       sodipodi:nodetypes="cc" />
    <path
       style="fill:none;stroke:#000000;stroke-width:3.47816;stroke-linecap:butt;stroke-linejoin:miter;stroke-miterlimit:4;stroke-dasharray:none;stroke-opacity:1"
       d="m 72.325675,79.579044 c 3.791868,14.167103 -9.126193,28.509096 -26.32238,15.360974"
       id="path3130"
       sodipodi:nodetypes="cc" />
    <path
       style="fill:none;stroke:#000000;stroke-width:3.47816;stroke-linecap:round;stroke-linejoin:round;stroke-miterlimit:4;stroke-dasharray:none;stroke-opacity:1"
       d="M 31.541436,110.33018 C 26.549977,105.42534 38.548053,90.522191 46.003295,94.940018"
       id="path3265"
       sodipodi:nodetypes="cc" />
    <path
       style="fill:none;stroke:#000000;stroke-width:3.47816;stroke-linecap:butt;stroke-linejoin:miter;stroke-miterlimit:4;stroke-dasharray:none;stroke-opacity:1"
       d="M 93.673469,78.459842 C 106.60751,142.80631 33.154155,115.15194 31.541436,110.33018"
       id="path3597"
       sodipodi:nodetypes="cc" />
    <path
       style="fill:none;stroke:#000000;stroke-width:3.47816;stroke-linecap:round;stroke-linejoin:miter;stroke-miterlimit:4;stroke-dasharray:none;stroke-opacity:1"
       d="M 72.325675,79.579044 58.452077,42.519648 v 0"
       id="path6027" />
    <path
       style="fill:none;stroke:#000000;stroke-width:3.47816;stroke-linecap:round;stroke-linejoin:miter;stroke-miterlimit:4;stroke-dasharray:none;stroke-opacity:1"
       d="m 83.72877,42.438031 9.944699,36.021811"
       id="path6029" />
    <g
       id="g6390"
       transform="matrix(2.4981638,-3.600073,3.600073,2.4981638,-56.192306,105.53457)"
       style="fill:#8bd8bd;fill-opacity:1">
      <ellipse
         style="fill:#8bd8bd;stroke:#000000;stroke-width:0.706102;stroke-linecap:round;stroke-linejoin:round;stroke-miterlimit:4;stroke-dasharray:none;stroke-opacity:1;fill-opacity:1"
         id="path1692"
         cx="7.955946"
         cy="22.387791"
         rx="2.1140363"
         ry="2.4261677" />
      <ellipse
         style="fill:#8bd8bd;fill-opacity:1;stroke:#000000;stroke-width:0.760044;stroke-linecap:round;stroke-linejoin:round;stroke-miterlimit:4;stroke-dasharray:none;stroke-opacity:1"
         id="ellipse4266"
         cx="7.9584699"
         cy="22.387791"
         rx="0.41101894"
         ry="0.44307435" />
      <ellipse
         style="fill:#8bd8bd;fill-opacity:1;stroke:#000000;stroke-width:0.760238;stroke-linecap:round;stroke-linejoin:round;stroke-miterlimit:4;stroke-dasharray:none;stroke-opacity:1"
         id="ellipse4322"
         cx="7.955946"
         cy="22.387791"
         rx="0.39845183"
         ry="0.4572818" />
    </g>
    <g
       id="g6398"
       transform="matrix(2.4981638,-3.600073,3.600073,2.4981638,-14.420775,105.53457)"
       style="fill:#8bd8bd;fill-opacity:1">
      <ellipse
         style="fill:#8bd8bd;stroke:#000000;stroke-width:0.706102;stroke-linecap:round;stroke-linejoin:round;stroke-miterlimit:4;stroke-dasharray:none;stroke-opacity:1;fill-opacity:1"
         id="ellipse6392"
         cx="7.955946"
         cy="22.387791"
         rx="2.1140363"
         ry="2.4261677" />
      <ellipse
         style="fill:#8bd8bd;fill-opacity:1;stroke:#000000;stroke-width:0.760044;stroke-linecap:round;stroke-linejoin:round;stroke-miterlimit:4;stroke-dasharray:none;stroke-opacity:1"
         id="ellipse6394"
         cx="7.9584699"
         cy="22.387791"
         rx="0.41101894"
         ry="0.44307435" />
      <ellipse
         style="fill:#8bd8bd;fill-opacity:1;stroke:#000000;stroke-width:0.760238;stroke-linecap:round;stroke-linejoin:round;stroke-miterlimit:4;stroke-dasharray:none;stroke-opacity:1"
         id="ellipse6396"
         cx="7.955946"
         cy="22.387791"
         rx="0.39845183"
         ry="0.4572818" />
    </g>
    <path
       style="fill:#354c74;fill-opacity:1;stroke:#000000;stroke-width:0.537685;stroke-linecap:round;stroke-linejoin:round;stroke-miterlimit:4;stroke-dasharray:none;stroke-opacity:1"
       d="m 62.559562,118.39736 c -9.177112,-0.79622 -18.743697,-3.30779 -25.81444,-6.77721 -3.77186,-1.85075 -4.747469,-2.91297 -4.510802,-4.91125 0.302287,-2.55236 2.52711,-6.03044 5.296597,-8.280222 1.515386,-1.231017 2.595062,-1.819599 4.110882,-2.241036 1.683455,-0.468043 2.371646,-0.279567 4.736338,1.297228 3.287715,2.192251 6.610457,3.63552 9.647487,4.19049 1.64901,0.30134 4.86024,0.26055 6.354708,-0.0807 2.73487,-0.62451 5.027551,-1.845366 7.020406,-3.738388 2.334287,-2.217342 3.913322,-4.996443 4.85322,-8.541669 0.393367,-1.483762 0.454635,-2.093658 0.460033,-4.579397 0.0044,-2.091397 -0.07874,-3.252189 -0.307743,-4.288164 -0.172692,-0.781277 -3.21127,-9.153612 -6.752433,-18.60519 -3.541169,-9.451577 -6.438486,-17.26075 -6.438486,-17.353721 0,-0.103987 4.066842,-0.169037 10.567595,-0.169037 H 82.35052 l 0.204899,0.761723 c 0.112703,0.418948 2.256749,8.181798 4.764561,17.250779 5.577952,20.17154 5.982497,22.212702 5.973812,30.141295 -0.01753,15.824459 -7.526985,24.368639 -22.732748,25.864379 -1.720996,0.16928 -6.342968,0.20402 -8.001504,0.0601 z"
       id="path6511" />
    <path
       style="fill:#8bd8bd;fill-opacity:1;stroke:#000000;stroke-width:0.537685;stroke-linecap:round;stroke-linejoin:round;stroke-miterlimit:4;stroke-dasharray:none;stroke-opacity:1"
       d="m 43.408051,140.62833 c -3.262315,-0.78972 -6.340591,-3.60179 -7.283085,-6.65323 -1.581809,-5.1213 1.976556,-9.47674 7.47583,-9.15043 5.103181,0.3028 9.396368,4.80678 9.15945,9.60913 -0.222414,4.50832 -4.53041,7.36176 -9.352195,6.19453 z m 2.349335,-4.43558 c 2.530172,-0.91778 2.940191,-4.21715 0.756372,-6.08642 -0.856121,-0.7328 -1.556901,-0.92896 -2.868506,-0.80293 -2.960387,0.28443 -4.061086,3.78327 -1.878013,5.96967 1.06471,1.06634 2.606292,1.42165 3.990147,0.91968 z"
       id="path6550" />
    <path
       style="fill:#8bd8bd;fill-opacity:1;stroke:#000000;stroke-width:0.537685;stroke-linecap:round;stroke-linejoin:round;stroke-miterlimit:4;stroke-dasharray:none;stroke-opacity:1"
       d="m 85.17958,140.62833 c -3.262315,-0.78972 -6.340593,-3.60179 -7.283086,-6.65323 -1.581808,-5.1213 1.976555,-9.47674 7.47583,-9.15043 5.103178,0.3028 9.39637,4.80678 9.159447,9.60913 -0.222427,4.50832 -4.530407,7.36176 -9.352191,6.19453 z m 2.349335,-4.43558 c 2.530172,-0.91778 2.94019,-4.21715 0.75637,-6.08642 -0.856121,-0.7328 -1.556902,-0.92896 -2.868507,-0.80293 -2.960386,0.28443 -4.061084,3.78327 -1.878009,5.96967 1.064709,1.06634 2.606291,1.42165 3.990146,0.91968 z"
       id="path6589" />
    <text
       xml:space="preserve"
       style="font-style:normal;font-variant:normal;font-weight:normal;font-stretch:normal;font-size:81.9164px;line-height:1.25;font-family:'Arial Black';-inkscape-font-specification:'Arial Black, Normal';font-variant-ligatures:normal;font-variant-caps:normal;font-variant-numeric:normal;font-variant-east-asian:normal;fill:#354c74;fill-opacity:1;stroke:#000000;stroke-width:2.63359;stroke-miterlimit:4;stroke-dasharray:none;stroke-opacity:1"
       x="97.558922"
       y="85.453835"
       id="text7802"><tspan
         sodipodi:role="line"
         id="tspan7800"
         style="font-style:normal;font-variant:normal;font-weight:normal;font-stretch:normal;font-size:81.9164px;font-family:'Arial Black';-inkscape-font-specification:'Arial Black, Normal';font-variant-ligatures:normal;font-variant-caps:normal;font-variant-numeric:normal;font-variant-east-asian:normal;fill:#354c74;fill-opacity:1;stroke:#000000;stroke-width:2.63359;stroke-miterlimit:4;stroke-dasharray:none;stroke-opacity:1"
         x="97.558922"
         y="85.453835">am</tspan></text>
    <text
       xml:space="preserve"
       style="font-style:normal;font-variant:normal;font-weight:normal;font-stretch:normal;font-size:66.747px;line-height:1.25;font-family:'Arial Black';-inkscape-font-specification:'Arial Black, Normal';font-variant-ligatures:normal;font-variant-caps:normal;font-variant-numeric:normal;font-variant-east-asian:normal;fill:#8bd8bd;fill-opacity:1;stroke:#000000;stroke-width:2.14591;stroke-miterlimit:4;stroke-dasharray:none;stroke-opacity:1"
       x="102.4439"
       y="142.04907"
       id="text12267"><tspan
         sodipodi:role="line"
         id="tspan12265"
         style="font-style:normal;font-variant:normal;font-weight:normal;font-stretch:normal;font-size:66.747px;font-family:'Arial Black';-inkscape-font-specification:'Arial Black, Normal';font-variant-ligatures:normal;font-variant-caps:normal;font-variant-numeric:normal;font-variant-east-asian:normal;fill:#8bd8bd;fill-opacity:1;stroke:#000000;stroke-width:2.14591;stroke-miterlimit:4;stroke-dasharray:none;stroke-opacity:1"
         x="102.4439"
         y="142.04907">stats</tspan></text>
  </g>
</svg>
