<?xml version="1.0" encoding="UTF-8" standalone="no"?>
<!-- Created with Inkscape (http://www.inkscape.org/) -->

<svg
   width="1in"
   height="1in"
   viewBox="0 0 25.4 25.400001"
   version="1.1"
   id="svg5"
   inkscape:version="1.1 (c4e8f9e, 2021-05-24)"
   sodipodi:docname="jamstats_logo.svg"
   xmlns:inkscape="http://www.inkscape.org/namespaces/inkscape"
   xmlns:sodipodi="http://sodipodi.sourceforge.net/DTD/sodipodi-0.dtd"
   xmlns="http://www.w3.org/2000/svg"
   xmlns:svg="http://www.w3.org/2000/svg">
  <sodipodi:namedview
     id="namedview7"
     pagecolor="#ffffff"
     bordercolor="#666666"
     borderopacity="1.0"
     inkscape:pageshadow="2"
     inkscape:pageopacity="0.0"
     inkscape:pagecheckerboard="0"
     inkscape:document-units="mm"
     showgrid="false"
     units="in"
     inkscape:zoom="6.46875"
     inkscape:cx="46.68599"
     inkscape:cy="48.154589"
     inkscape:window-width="1393"
     inkscape:window-height="847"
     inkscape:window-x="47"
     inkscape:window-y="25"
     inkscape:window-maximized="0"
     inkscape:current-layer="layer1" />
  <defs
     id="defs2" />
  <g
     inkscape:label="Layer 1"
     inkscape:groupmode="layer"
     id="layer1">
    <path
       style="fill:none;stroke:#000000;stroke-width:0.79375;stroke-linecap:round;stroke-linejoin:round;stroke-miterlimit:4;stroke-dasharray:none;stroke-opacity:1"
       d="m 17.224463,2.2922295 2.003408,8.2189955"
       id="path877"
       sodipodi:nodetypes="cc" />
    <path
       style="fill:none;stroke:#000000;stroke-width:0.79375;stroke-linecap:round;stroke-linejoin:round;stroke-miterlimit:4;stroke-dasharray:none;stroke-opacity:1"
       d="m 12.40498,2.3077915 1.951117,8.4588465"
       id="path879"
       sodipodi:nodetypes="cc" />
    <path
       style="fill:none;stroke:#000000;stroke-width:0.79375;stroke-linecap:round;stroke-linejoin:round;stroke-miterlimit:4;stroke-dasharray:none;stroke-opacity:1"
       d="m 12.40498,2.3077915 c 0.03051,-1.59672237 4.382897,-1.94441023 4.819483,-0.015562"
       id="path1414"
       sodipodi:nodetypes="cc" />
    <ellipse
       style="fill:none;stroke:#000000;stroke-width:0.661386;stroke-linecap:round;stroke-linejoin:round;stroke-miterlimit:4;stroke-dasharray:none;stroke-opacity:1"
       id="path1692"
       cx="7.9408627"
       cy="22.715004"
       rx="2.1213112"
       ry="2.1213114" />
    <path
       style="fill:none;stroke:#000000;stroke-width:0.79375;stroke-linecap:butt;stroke-linejoin:miter;stroke-miterlimit:4;stroke-dasharray:none;stroke-opacity:1"
       d="m 14.356097,10.766638 c 0.865341,3.233071 -2.082686,6.506054 -6.007023,3.505524"
       id="path3130"
       sodipodi:nodetypes="cc" />
    <path
       style="fill:none;stroke:#000000;stroke-width:0.79375;stroke-linecap:round;stroke-linejoin:round;stroke-miterlimit:4;stroke-dasharray:none;stroke-opacity:1"
       d="M 5.0487373,17.784346 C 3.9096377,16.665014 6.6477153,13.263971 8.349074,14.272162"
       id="path3265"
       sodipodi:nodetypes="cc" />
    <path
       style="fill:none;stroke:#000000;stroke-width:0.79375;stroke-linecap:butt;stroke-linejoin:miter;stroke-miterlimit:4;stroke-dasharray:none;stroke-opacity:1"
       d="M 19.227871,10.511225 C 22.179545,25.195714 5.4167753,18.884719 5.0487373,17.784346"
       id="path3597"
       sodipodi:nodetypes="cc" />
    <ellipse
       style="fill:#000000;fill-opacity:1;stroke:#000000;stroke-width:0.711912;stroke-linecap:round;stroke-linejoin:round;stroke-miterlimit:4;stroke-dasharray:none;stroke-opacity:1"
       id="ellipse4266"
       cx="7.9433956"
       cy="22.715004"
       rx="0.41243333"
       ry="0.38740054" />
    <ellipse
       style="fill:#000000;fill-opacity:1;stroke:#000000;stroke-width:0.712094;stroke-linecap:round;stroke-linejoin:round;stroke-miterlimit:4;stroke-dasharray:none;stroke-opacity:1"
       id="ellipse4322"
       cx="7.9408627"
       cy="22.715004"
       rx="0.39982298"
       ry="0.39982277" />
    <path
       style="fill:#aa0000;fill-opacity:1;stroke:#000000;stroke-width:0.463768;stroke-linecap:round;stroke-linejoin:round;stroke-miterlimit:4;stroke-dasharray:none;stroke-opacity:1"
       d="M 45.835749,74.17457 C 37.920261,73.487811 29.668843,71.321521 23.570151,68.329059 20.316827,66.732741 19.47534,65.81655 19.679471,64.092981 c 0.260731,-2.201469 2.179696,-5.201404 4.568447,-7.141895 1.307059,-1.061784 2.238306,-1.569451 3.545738,-1.93295 1.452023,-0.403697 2.045604,-0.241122 4.08521,1.11889 2.835736,1.890873 5.701684,3.135727 8.3212,3.6144 1.422312,0.259904 4.192078,0.224719 5.481093,-0.06963 3.315401,-0.757074 6.139072,-2.71396 8.041328,-5.572874 2.074174,-3.117292 3.029626,-7.225585 2.562789,-11.01959 -0.09694,-0.787823 -1.879043,-8.810854 -3.960232,-17.828958 -2.08119,-9.018104 -3.783981,-16.5646254 -3.783981,-16.7700479 0,-0.9050721 1.85026,-2.2128239 3.942029,-2.7862012 1.212648,-0.3324003 4.6803,-0.4624121 6.036098,-0.22631 2.166657,0.3773069 4.157667,1.5622661 4.752927,2.8287266 0.417304,0.8878398 7.829274,31.5787265 8.298106,34.3601235 0.58012,3.441617 0.778271,5.781653 0.774586,9.147376 -0.01495,13.648992 -6.492213,21.018557 -19.607565,22.308673 -1.484399,0.146016 -5.470968,0.175968 -6.901495,0.05185 z"
       id="path4539"
       transform="scale(0.26458333)" />
    <path
       style="fill:#aa0000;fill-opacity:1;stroke:#000000;stroke-width:0.102243;stroke-linecap:round;stroke-linejoin:round;stroke-miterlimit:4;stroke-dasharray:none;stroke-opacity:1"
       d="M 7.5395125,24.431167 C 7.2162308,24.344055 6.9911812,24.220339 6.7502699,23.997298 6.2583104,23.54183 6.0683511,22.904426 6.2344617,22.266517 6.4564922,21.41386 7.3678982,20.817994 8.2177452,20.96987 c 0.8714748,0.155741 1.4785184,0.871215 1.4785184,1.742613 0,0.830432 -0.5541686,1.527899 -1.3660757,1.719319 -0.2978111,0.07021 -0.5284355,0.07003 -0.7906754,-6.25e-4 z M 8.3841729,23.347653 C 8.9695487,22.935336 8.74726,22.036703 8.0391467,21.952837 7.1610019,21.848834 6.8243416,23.033092 7.6236906,23.414271 c 0.2296414,0.109508 0.5503142,0.08142 0.7604823,-0.06662 z"
       id="path4933" />
    <ellipse
       style="fill:none;stroke:#000000;stroke-width:0.661386;stroke-linecap:round;stroke-linejoin:round;stroke-miterlimit:4;stroke-dasharray:none;stroke-opacity:1"
       id="ellipse5171"
       cx="16.737299"
       cy="22.715004"
       rx="2.1213112"
       ry="2.1213114" />
    <ellipse
       style="fill:#000000;fill-opacity:1;stroke:#000000;stroke-width:0.711912;stroke-linecap:round;stroke-linejoin:round;stroke-miterlimit:4;stroke-dasharray:none;stroke-opacity:1"
       id="ellipse5173"
       cx="16.739832"
       cy="22.715004"
       rx="0.41243333"
       ry="0.38740054" />
    <ellipse
       style="fill:#000000;fill-opacity:1;stroke:#000000;stroke-width:0.712094;stroke-linecap:round;stroke-linejoin:round;stroke-miterlimit:4;stroke-dasharray:none;stroke-opacity:1"
       id="ellipse5175"
       cx="16.737299"
       cy="22.715004"
       rx="0.39982298"
       ry="0.39982277" />
    <path
       style="fill:#aa0000;fill-opacity:1;stroke:#000000;stroke-width:0.102243;stroke-linecap:round;stroke-linejoin:round;stroke-miterlimit:4;stroke-dasharray:none;stroke-opacity:1"
       d="m 16.33595,24.431167 c -0.323282,-0.08711 -0.548332,-0.210828 -0.789243,-0.433869 -0.491959,-0.455468 -0.681919,-1.092872 -0.515808,-1.730781 0.22203,-0.852657 1.133436,-1.448523 1.983283,-1.296647 0.871475,0.155741 1.478519,0.871215 1.478519,1.742613 0,0.830432 -0.554169,1.527899 -1.366076,1.719319 -0.297811,0.07021 -0.528435,0.07003 -0.790675,-6.25e-4 z m 0.84466,-1.083514 c 0.585376,-0.412317 0.363087,-1.31095 -0.345026,-1.394816 -0.878145,-0.104003 -1.214805,1.080255 -0.415456,1.461434 0.229641,0.109508 0.550314,0.08142 0.760482,-0.06662 z"
       id="path5177" />
  </g>
</svg>
