<?xml version="1.0" encoding="UTF-8" standalone="no"?>
<!-- Created with Inkscape (http://www.inkscape.org/) -->

<svg
   width="1280"
   height="640"
   viewBox="0 0 338.66666 169.33333"
   version="1.1"
   id="svg7454"
   inkscape:version="1.1 (c4e8f9e, 2021-05-24)"
   sodipodi:docname="jamstats_socialmedia.svg"
   inkscape:export-filename="/Users/damonmay/derby/jamstats/resources/jamstats_socialmedia.png"
   inkscape:export-xdpi="90"
   inkscape:export-ydpi="90"
   xmlns:inkscape="http://www.inkscape.org/namespaces/inkscape"
   xmlns:sodipodi="http://sodipodi.sourceforge.net/DTD/sodipodi-0.dtd"
   xmlns="http://www.w3.org/2000/svg"
   xmlns:svg="http://www.w3.org/2000/svg">
  <sodipodi:namedview
     id="namedview7456"
     pagecolor="#ffffff"
     bordercolor="#666666"
     borderopacity="1.0"
     inkscape:pageshadow="2"
     inkscape:pageopacity="1"
     inkscape:pagecheckerboard="0"
     inkscape:document-units="px"
     showgrid="false"
     inkscape:zoom="0.39370511"
     inkscape:cx="623.56315"
     inkscape:cy="311.14658"
     inkscape:window-width="1312"
     inkscape:window-height="847"
     inkscape:window-x="47"
     inkscape:window-y="25"
     inkscape:window-maximized="0"
     inkscape:current-layer="layer1"
     units="px" />
  <defs
     id="defs7451" />
  <g
     inkscape:label="Layer 1"
     inkscape:groupmode="layer"
     id="layer1">
    <text
       xml:space="preserve"
       style="font-style:normal;font-variant:normal;font-weight:normal;font-stretch:normal;font-size:81.9164px;line-height:1.25;font-family:'Arial Black';-inkscape-font-specification:'Arial Black, Normal';font-variant-ligatures:normal;font-variant-caps:normal;font-variant-numeric:normal;font-variant-east-asian:normal;fill:#354c74;fill-opacity:1;stroke:#000000;stroke-width:2.63359;stroke-miterlimit:4;stroke-dasharray:none;stroke-opacity:1"
       x="109.66611"
       y="77.802612"
       id="text7802"><tspan
         sodipodi:role="line"
         id="tspan7800"
         style="font-style:normal;font-variant:normal;font-weight:normal;font-stretch:normal;font-size:81.9164px;font-family:'Arial Black';-inkscape-font-specification:'Arial Black, Normal';font-variant-ligatures:normal;font-variant-caps:normal;font-variant-numeric:normal;font-variant-east-asian:normal;fill:#354c74;fill-opacity:1;stroke:#000000;stroke-width:2.63359;stroke-miterlimit:4;stroke-dasharray:none;stroke-opacity:1"
         x="109.66611"
         y="77.802612">am</tspan></text>
    <path
       style="fill:none;stroke:#000000;stroke-width:3.47297;stroke-linecap:round;stroke-linejoin:round;stroke-miterlimit:4;stroke-dasharray:none;stroke-opacity:1"
       d="m 69.783023,34.865741 c 25.238942,-0.0815 0,0 25.238942,-0.0815"
       id="path1414"
       sodipodi:nodetypes="cc" />
    <path
       style="fill:none;stroke:#000000;stroke-width:3.47297;stroke-linecap:butt;stroke-linejoin:miter;stroke-miterlimit:4;stroke-dasharray:none;stroke-opacity:1"
       d="m 83.635903,71.869793 c 3.786205,14.145945 -9.112564,28.466527 -26.28307,15.338034"
       id="path3130"
       sodipodi:nodetypes="cc" />
    <path
       style="fill:#8bd8bd;stroke:#000000;stroke-width:3.47297;stroke-linecap:round;stroke-linejoin:round;stroke-miterlimit:4;stroke-dasharray:none;stroke-opacity:1;fill-opacity:1"
       d="M 42.912571,102.575 C 37.928566,97.677489 49.908723,82.796597 57.352833,87.207827"
       id="path3265"
       sodipodi:nodetypes="cc" />
    <path
       style="fill:none;stroke:#000000;stroke-width:3.47297;stroke-linecap:butt;stroke-linejoin:miter;stroke-miterlimit:4;stroke-dasharray:none;stroke-opacity:1"
       d="M 104.95182,70.752262 C 117.86654,135.00264 44.522881,107.38956 42.912571,102.575"
       id="path3597"
       sodipodi:nodetypes="cc" />
    <path
       style="fill:none;stroke:#000000;stroke-width:3.47297;stroke-linecap:round;stroke-linejoin:miter;stroke-miterlimit:4;stroke-dasharray:none;stroke-opacity:1"
       d="M 83.635903,71.869793 69.783023,34.865741 v 0"
       id="path6027" />
    <path
       style="fill:none;stroke:#000000;stroke-width:3.47297;stroke-linecap:round;stroke-linejoin:miter;stroke-miterlimit:4;stroke-dasharray:none;stroke-opacity:1"
       d="m 95.021965,34.784244 9.929855,35.968018"
       id="path6029" />
    <g
       id="g6390"
       transform="matrix(2.494433,-3.5946967,3.5946967,2.494433,-44.690152,97.786552)"
       style="fill:#8bd8bd;fill-opacity:1">
      <ellipse
         style="fill:#8bd8bd;stroke:#000000;stroke-width:0.706102;stroke-linecap:round;stroke-linejoin:round;stroke-miterlimit:4;stroke-dasharray:none;stroke-opacity:1;fill-opacity:1"
         id="path1692"
         cx="7.955946"
         cy="22.387791"
         rx="2.1140363"
         ry="2.4261677" />
      <ellipse
         style="fill:#8bd8bd;fill-opacity:1;stroke:#000000;stroke-width:0.760044;stroke-linecap:round;stroke-linejoin:round;stroke-miterlimit:4;stroke-dasharray:none;stroke-opacity:1"
         id="ellipse4266"
         cx="7.9584699"
         cy="22.387791"
         rx="0.41101894"
         ry="0.44307435" />
      <ellipse
         style="fill:#8bd8bd;fill-opacity:1;stroke:#000000;stroke-width:0.760238;stroke-linecap:round;stroke-linejoin:round;stroke-miterlimit:4;stroke-dasharray:none;stroke-opacity:1"
         id="ellipse4322"
         cx="7.955946"
         cy="22.387791"
         rx="0.39845183"
         ry="0.4572818" />
    </g>
    <g
       id="g6398"
       transform="matrix(2.494433,-3.5946967,3.5946967,2.494433,-2.981002,97.786555)"
       style="fill:#8bd8bd;fill-opacity:1">
      <ellipse
         style="fill:#8bd8bd;stroke:#000000;stroke-width:0.706102;stroke-linecap:round;stroke-linejoin:round;stroke-miterlimit:4;stroke-dasharray:none;stroke-opacity:1;fill-opacity:1"
         id="ellipse6392"
         cx="7.955946"
         cy="22.387791"
         rx="2.1140363"
         ry="2.4261677" />
      <ellipse
         style="fill:#8bd8bd;fill-opacity:1;stroke:#000000;stroke-width:0.760044;stroke-linecap:round;stroke-linejoin:round;stroke-miterlimit:4;stroke-dasharray:none;stroke-opacity:1"
         id="ellipse6394"
         cx="7.9584699"
         cy="22.387791"
         rx="0.41101894"
         ry="0.44307435" />
      <ellipse
         style="fill:#8bd8bd;fill-opacity:1;stroke:#000000;stroke-width:0.760238;stroke-linecap:round;stroke-linejoin:round;stroke-miterlimit:4;stroke-dasharray:none;stroke-opacity:1"
         id="ellipse6396"
         cx="7.955946"
         cy="22.387791"
         rx="0.39845183"
         ry="0.4572818" />
    </g>
    <path
       style="fill:#354c74;fill-opacity:1;stroke:#000000;stroke-width:0.536883;stroke-linecap:round;stroke-linejoin:round;stroke-miterlimit:4;stroke-dasharray:none;stroke-opacity:1"
       d="m 73.884375,110.63013 c -9.163407,-0.79502 -18.715705,-3.30284 -25.775889,-6.76708 -3.766228,-1.84799 -4.74038,-2.90862 -4.504067,-4.903918 0.301837,-2.548542 2.523337,-6.021434 5.288687,-8.267856 1.513124,-1.229179 2.591188,-1.81688 4.104743,-2.237689 1.680943,-0.467343 2.368105,-0.279149 4.729265,1.295291 3.282805,2.188978 6.600585,3.630091 9.633081,4.184229 1.646546,0.300897 4.852982,0.260161 6.345217,-0.08059 2.730786,-0.623576 5.020043,-1.842613 7.009923,-3.732808 2.330801,-2.21403 3.907477,-4.988981 4.845971,-8.528913 0.392779,-1.481546 0.453957,-2.09053 0.459348,-4.572558 0.0044,-2.088274 -0.07863,-3.247332 -0.307285,-4.28176 C 85.540935,71.956363 82.506894,63.596532 78.971019,54.15907 75.43514,44.721607 72.54215,36.924096 72.54215,36.831264 c 0,-0.103828 4.060768,-0.168785 10.551812,-0.168785 h 10.551821 l 0.204581,0.760586 c 0.112572,0.418321 2.253386,8.169579 4.75745,17.225016 5.569626,20.141417 5.973556,22.17953 5.964896,30.096283 -0.0175,15.800826 -7.515751,24.332256 -22.698803,25.825756 -1.718425,0.16901 -6.333495,0.20372 -7.989554,0.06 z"
       id="path6511" />
    <path
       style="fill:#8bd8bd;fill-opacity:1;stroke:#000000;stroke-width:0.536883;stroke-linecap:round;stroke-linejoin:round;stroke-miterlimit:4;stroke-dasharray:none;stroke-opacity:1"
       d="m 54.761464,132.8279 c -3.257443,-0.78853 -6.331122,-3.59639 -7.272209,-6.64329 -1.579445,-5.11364 1.973604,-9.46259 7.464666,-9.13676 5.09556,0.30234 9.382336,4.7996 9.145771,9.59479 -0.222081,4.50158 -4.523643,7.35075 -9.338228,6.18526 z m 2.345827,-4.42894 c 2.526393,-0.91642 2.935799,-4.21085 0.755243,-6.07734 -0.854843,-0.73171 -1.554577,-0.92758 -2.864223,-0.80173 -2.955967,0.28401 -4.055022,3.77762 -1.875208,5.96076 1.06312,1.06474 2.6024,1.41952 3.984188,0.91831 z"
       id="path6550" />
    <path
       style="fill:#8bd8bd;fill-opacity:1;stroke:#000000;stroke-width:0.536883;stroke-linecap:round;stroke-linejoin:round;stroke-miterlimit:4;stroke-dasharray:none;stroke-opacity:1"
       d="m 96.47061,132.8279 c -3.257439,-0.78853 -6.331127,-3.59639 -7.272208,-6.64329 -1.579446,-5.11364 1.973598,-9.46259 7.464663,-9.13676 5.095565,0.30234 9.382345,4.7996 9.145765,9.59479 -0.22209,4.50158 -4.52363,7.35075 -9.33822,6.18526 z m 2.345823,-4.42894 c 2.526407,-0.91642 2.935807,-4.21085 0.755246,-6.07734 -0.854836,-0.73171 -1.554572,-0.92758 -2.864227,-0.80173 -2.955956,0.28401 -4.055014,3.77762 -1.875201,5.96076 1.063121,1.06474 2.602398,1.41952 3.984182,0.91831 z"
       id="path6589" />
    <text
       xml:space="preserve"
       style="font-style:normal;font-variant:normal;font-weight:normal;font-stretch:normal;font-size:66.747px;line-height:1.25;font-family:'Arial Black';-inkscape-font-specification:'Arial Black, Normal';font-variant-ligatures:normal;font-variant-caps:normal;font-variant-numeric:normal;font-variant-east-asian:normal;fill:#8bd8bd;fill-opacity:1;stroke:#000000;stroke-width:2.14591;stroke-miterlimit:4;stroke-dasharray:none;stroke-opacity:1"
       x="114.5511"
       y="134.39784"
       id="text12267"><tspan
         sodipodi:role="line"
         id="tspan12265"
         style="font-style:normal;font-variant:normal;font-weight:normal;font-stretch:normal;font-size:66.747px;font-family:'Arial Black';-inkscape-font-specification:'Arial Black, Normal';font-variant-ligatures:normal;font-variant-caps:normal;font-variant-numeric:normal;font-variant-east-asian:normal;fill:#8bd8bd;fill-opacity:1;stroke:#000000;stroke-width:2.14591;stroke-miterlimit:4;stroke-dasharray:none;stroke-opacity:1"
         x="114.5511"
         y="134.39784">stats</tspan></text>
  </g>
</svg>
