<?xml version="1.0" encoding="UTF-8" standalone="no"?>
<!-- Created with Inkscape (http://www.inkscape.org/) -->

<svg
   width="1in"
   height="1in"
   viewBox="0 0 25.4 25.400001"
   version="1.1"
   id="svg5"
   inkscape:version="1.1 (c4e8f9e, 2021-05-24)"
   sodipodi:docname="jamstats_icon.svg"
   inkscape:export-filename="/Users/damonmay/derby/jamstats/resources/jamstats_icon.png"
   inkscape:export-xdpi="90"
   inkscape:export-ydpi="90"
   xmlns:inkscape="http://www.inkscape.org/namespaces/inkscape"
   xmlns:sodipodi="http://sodipodi.sourceforge.net/DTD/sodipodi-0.dtd"
   xmlns="http://www.w3.org/2000/svg"
   xmlns:svg="http://www.w3.org/2000/svg">
  <sodipodi:namedview
     id="namedview7"
     pagecolor="#ffffff"
     bordercolor="#666666"
     borderopacity="1.0"
     inkscape:pageshadow="2"
     inkscape:pageopacity="0.0"
     inkscape:pagecheckerboard="0"
     inkscape:document-units="mm"
     showgrid="false"
     units="in"
     inkscape:zoom="4.574097"
     inkscape:cx="46.129323"
     inkscape:cy="49.299348"
     inkscape:window-width="1393"
     inkscape:window-height="847"
     inkscape:window-x="47"
     inkscape:window-y="25"
     inkscape:window-maximized="0"
     inkscape:current-layer="layer1" />
  <defs
     id="defs2" />
  <g
     inkscape:label="Layer 1"
     inkscape:groupmode="layer"
     id="layer1">
    <rect
       style="fill:#ffffff;fill-opacity:1;stroke:#000000;stroke-width:1.22347;stroke-linecap:round;stroke-linejoin:round;stroke-miterlimit:4;stroke-dasharray:none;stroke-opacity:1"
       id="rect6807"
       width="24.127924"
       height="24.093027"
       x="0.7202388"
       y="0.75230181"
       ry="4.9594998" />
    <path
       style="fill:none;stroke:#000000;stroke-width:0.720041;stroke-linecap:round;stroke-linejoin:round;stroke-miterlimit:4;stroke-dasharray:none;stroke-opacity:1"
       d="m 11.217816,2.7186825 c 5.232728,-0.016896 0,0 5.232728,-0.016896"
       id="path1414"
       sodipodi:nodetypes="cc" />
    <path
       style="fill:none;stroke:#000000;stroke-width:0.720041;stroke-linecap:butt;stroke-linejoin:miter;stroke-miterlimit:4;stroke-dasharray:none;stroke-opacity:1"
       d="m 14.089899,10.390641 c 0.784985,2.932844 -1.889285,5.901894 -5.4492037,3.179997"
       id="path3130"
       sodipodi:nodetypes="cc" />
    <path
       style="fill:none;stroke:#000000;stroke-width:0.720041;stroke-linecap:round;stroke-linejoin:round;stroke-miterlimit:4;stroke-dasharray:none;stroke-opacity:1"
       d="M 5.6468316,16.756676 C 4.6135101,15.741287 7.0973267,12.656068 8.6406953,13.570638"
       id="path3265"
       sodipodi:nodetypes="cc" />
    <path
       style="fill:none;stroke:#000000;stroke-width:0.720041;stroke-linecap:butt;stroke-linejoin:miter;stroke-miterlimit:4;stroke-dasharray:none;stroke-opacity:1"
       d="m 18.509275,10.158946 c 2.677578,13.32087 -12.5285818,7.595921 -12.8624434,6.59773"
       id="path3597"
       sodipodi:nodetypes="cc" />
    <path
       style="fill:none;stroke:#000000;stroke-width:0.720041;stroke-linecap:round;stroke-linejoin:miter;stroke-miterlimit:4;stroke-dasharray:none;stroke-opacity:1"
       d="M 14.089899,10.390641 11.217816,2.7186825 v 0"
       id="path6027" />
    <path
       style="fill:none;stroke:#000000;stroke-width:0.720041;stroke-linecap:round;stroke-linejoin:miter;stroke-miterlimit:4;stroke-dasharray:none;stroke-opacity:1"
       d="m 16.450544,2.7017862 2.058731,7.4571598"
       id="path6029" />
    <g
       id="g6390"
       transform="matrix(0.51716463,-0.74527957,0.74527957,0.51716463,-12.515624,15.763899)">
      <ellipse
         style="fill:none;stroke:#000000;stroke-width:0.706102;stroke-linecap:round;stroke-linejoin:round;stroke-miterlimit:4;stroke-dasharray:none;stroke-opacity:1"
         id="path1692"
         cx="7.955946"
         cy="22.387791"
         rx="2.1140363"
         ry="2.4261677" />
      <ellipse
         style="fill:#000000;fill-opacity:1;stroke:#000000;stroke-width:0.760044;stroke-linecap:round;stroke-linejoin:round;stroke-miterlimit:4;stroke-dasharray:none;stroke-opacity:1"
         id="ellipse4266"
         cx="7.9584699"
         cy="22.387791"
         rx="0.41101894"
         ry="0.44307435" />
      <ellipse
         style="fill:#000000;fill-opacity:1;stroke:#000000;stroke-width:0.760238;stroke-linecap:round;stroke-linejoin:round;stroke-miterlimit:4;stroke-dasharray:none;stroke-opacity:1"
         id="ellipse4322"
         cx="7.955946"
         cy="22.387791"
         rx="0.39845183"
         ry="0.4572818" />
    </g>
    <g
       id="g6398"
       transform="matrix(0.51716463,-0.74527957,0.74527957,0.51716463,-3.8681691,15.763899)">
      <ellipse
         style="fill:none;stroke:#000000;stroke-width:0.706102;stroke-linecap:round;stroke-linejoin:round;stroke-miterlimit:4;stroke-dasharray:none;stroke-opacity:1"
         id="ellipse6392"
         cx="7.955946"
         cy="22.387791"
         rx="2.1140363"
         ry="2.4261677" />
      <ellipse
         style="fill:#000000;fill-opacity:1;stroke:#000000;stroke-width:0.760044;stroke-linecap:round;stroke-linejoin:round;stroke-miterlimit:4;stroke-dasharray:none;stroke-opacity:1"
         id="ellipse6394"
         cx="7.9584699"
         cy="22.387791"
         rx="0.41101894"
         ry="0.44307435" />
      <ellipse
         style="fill:#000000;fill-opacity:1;stroke:#000000;stroke-width:0.760238;stroke-linecap:round;stroke-linejoin:round;stroke-miterlimit:4;stroke-dasharray:none;stroke-opacity:1"
         id="ellipse6396"
         cx="7.955946"
         cy="22.387791"
         rx="0.39845183"
         ry="0.4572818" />
    </g>
    <path
       style="fill:#354c74;fill-opacity:1;stroke:#000000;stroke-width:0.11131;stroke-linecap:round;stroke-linejoin:round;stroke-miterlimit:4;stroke-dasharray:none;stroke-opacity:1"
       d="M 12.068139,18.426727 C 10.168313,18.261895 8.1878582,17.741956 6.7240878,17.023723 5.9432451,16.640585 5.7412766,16.420686 5.7902709,16.007007 c 0.062579,-0.528383 0.5231571,-1.248409 1.0964904,-1.714154 0.3137122,-0.254843 0.5372243,-0.37669 0.8510261,-0.463935 0.3485055,-0.09689 0.4909732,-0.05787 0.9805068,0.268549 0.6806159,0.453836 1.3684828,0.752618 1.9972028,0.867506 0.341374,0.06238 1.006157,0.05394 1.315538,-0.01671 0.566167,-0.129285 1.040793,-0.382024 1.45335,-0.773914 0.483239,-0.459029 0.810128,-1.034353 1.004703,-1.768278 0.08143,-0.307166 0.09412,-0.433425 0.09523,-0.948018 9.08e-4,-0.432956 -0.0163,-0.673261 -0.06371,-0.887726 -0.03575,-0.161739 -0.66479,-1.8949618 -1.397875,-3.8516075 -0.733085,-1.9566457 -1.332881,-3.5732844 -1.332881,-3.5925309 0,-0.021527 0.841909,-0.034994 2.187681,-0.034994 h 2.187682 l 0.04242,0.1576903 c 0.02333,0.08673 0.467188,1.6937788 0.98635,3.5712201 1.154736,4.17587 1.238484,4.598427 1.236686,6.239788 -0.0036,3.275947 -1.558221,5.044744 -4.706086,5.35439 -0.356277,0.03504 -1.313108,0.04224 -1.656455,0.01245 z"
       id="path6511" />
    <path
       style="fill:#8bd8bd;fill-opacity:1;stroke:#000000;stroke-width:0.11131;stroke-linecap:round;stroke-linejoin:round;stroke-miterlimit:4;stroke-dasharray:none;stroke-opacity:1"
       d="M 8.1034333,23.028936 C 7.4280757,22.865449 6.7908175,22.283302 6.5957042,21.651598 c -0.3274626,-1.0602 0.4091825,-1.961855 1.5476307,-1.894302 1.0564498,0.06268 1.9452161,0.995088 1.8961701,1.989262 -0.046044,0.933302 -0.9378759,1.524016 -1.9360717,1.282378 z M 8.5897877,22.110691 C 9.1135785,21.920694 9.1984599,21.237666 8.7463703,20.850694 8.5691379,20.69899 8.4240639,20.658382 8.1525382,20.684472 c -0.6128532,0.05888 -0.8407175,0.783205 -0.3887823,1.23583 0.2204141,0.22075 0.5395491,0.294307 0.8260318,0.190389 z"
       id="path6550" />
    <path
       style="fill:#8bd8bd;fill-opacity:1;stroke:#000000;stroke-width:0.11131;stroke-linecap:round;stroke-linejoin:round;stroke-miterlimit:4;stroke-dasharray:none;stroke-opacity:1"
       d="m 16.750888,23.028936 c -0.675358,-0.163487 -1.312617,-0.745634 -1.50773,-1.377338 -0.327462,-1.0602 0.409183,-1.961855 1.547631,-1.894302 1.056449,0.06268 1.945217,0.995088 1.89617,1.989262 -0.04605,0.933302 -0.937876,1.524016 -1.936071,1.282378 z m 0.486354,-0.918245 c 0.523791,-0.189997 0.608672,-0.873025 0.156582,-1.259997 -0.177232,-0.151704 -0.322306,-0.192312 -0.593832,-0.166222 -0.612853,0.05888 -0.840717,0.783205 -0.388782,1.23583 0.220414,0.22075 0.539549,0.294307 0.826032,0.190389 z"
       id="path6589" />
  </g>
</svg>
