<?xml version="1.0" encoding="UTF-8" standalone="no"?>
<!-- Created with Inkscape (http://www.inkscape.org/) -->

<svg
   width="1280"
   height="640"
   viewBox="0 0 338.66666 169.33333"
   version="1.1"
   id="svg7454"
   inkscape:version="1.1 (c4e8f9e, 2021-05-24)"
   sodipodi:docname="jamstats_socialmedia.svg"
   inkscape:export-filename="/Users/damonmay/derby/jamstats/resources/jamstats_socialmedia.png"
   inkscape:export-xdpi="90"
   inkscape:export-ydpi="90"
   xmlns:inkscape="http://www.inkscape.org/namespaces/inkscape"
   xmlns:sodipodi="http://sodipodi.sourceforge.net/DTD/sodipodi-0.dtd"
   xmlns:xlink="http://www.w3.org/1999/xlink"
   xmlns="http://www.w3.org/2000/svg"
   xmlns:svg="http://www.w3.org/2000/svg">
  <sodipodi:namedview
     id="namedview7456"
     pagecolor="#ffffff"
     bordercolor="#666666"
     borderopacity="1.0"
     inkscape:pageshadow="2"
     inkscape:pageopacity="1"
     inkscape:pagecheckerboard="0"
     inkscape:document-units="px"
     showgrid="false"
     inkscape:zoom="0.39370511"
     inkscape:cx="645.15291"
     inkscape:cy="402.58558"
     inkscape:window-width="1312"
     inkscape:window-height="847"
     inkscape:window-x="47"
     inkscape:window-y="25"
     inkscape:window-maximized="0"
     inkscape:current-layer="layer1"
     units="px" />
  <defs
     id="defs7451">
    <linearGradient
       inkscape:collect="always"
       id="linearGradient11265">
      <stop
         style="stop-color:#d40000;stop-opacity:1;"
         offset="0"
         id="stop11261" />
      <stop
         style="stop-color:#d40000;stop-opacity:0;"
         offset="1"
         id="stop11263" />
    </linearGradient>
    <linearGradient
       inkscape:collect="always"
       xlink:href="#linearGradient11265"
       id="linearGradient11267"
       x1="83.058211"
       y1="82.894431"
       x2="327.33389"
       y2="82.894431"
       gradientUnits="userSpaceOnUse" />
  </defs>
  <g
     inkscape:label="Layer 1"
     inkscape:groupmode="layer"
     id="layer1">
    <text
       xml:space="preserve"
       style="font-style:normal;font-variant:normal;font-weight:normal;font-stretch:normal;font-size:74.457px;line-height:1.25;font-family:Futura;-inkscape-font-specification:'Futura, Normal';font-variant-ligatures:normal;font-variant-caps:normal;font-variant-numeric:normal;font-variant-east-asian:normal;fill:#d40000;fill-opacity:1;stroke:#000000;stroke-width:1.86142;stroke-opacity:1"
       x="79.568039"
       y="106.58034"
       id="text7802"><tspan
         sodipodi:role="line"
         id="tspan7800"
         style="font-style:normal;font-variant:normal;font-weight:normal;font-stretch:normal;font-size:74.457px;font-family:Futura;-inkscape-font-specification:'Futura, Normal';font-variant-ligatures:normal;font-variant-caps:normal;font-variant-numeric:normal;font-variant-east-asian:normal;fill:#d40000;stroke-width:1.86142;fill-opacity:1;stroke:#000000;stroke-opacity:1"
         x="79.568039"
         y="106.58034">amstats</tspan></text>
    <g
       id="g6783"
       transform="matrix(4.1825608,0,0,4.1825608,-5.9546514,30.829793)">
      <path
         style="fill:none;stroke:#000000;stroke-width:0.79375;stroke-linecap:round;stroke-linejoin:round;stroke-miterlimit:4;stroke-dasharray:none;stroke-opacity:1"
         d="m 11.190007,1.2509901 c 5.768387,-0.018626 0,0 5.768387,-0.018626"
         id="path1414"
         sodipodi:nodetypes="cc" />
      <path
         style="fill:none;stroke:#000000;stroke-width:0.79375;stroke-linecap:butt;stroke-linejoin:miter;stroke-miterlimit:4;stroke-dasharray:none;stroke-opacity:1"
         d="M 14.356097,9.7083043 C 15.221438,12.941375 12.273411,16.214358 8.349074,13.213828"
         id="path3130"
         sodipodi:nodetypes="cc" />
      <path
         style="fill:none;stroke:#000000;stroke-width:0.79375;stroke-linecap:round;stroke-linejoin:round;stroke-miterlimit:4;stroke-dasharray:none;stroke-opacity:1"
         d="M 5.0487373,16.726012 C 3.9096377,15.60668 6.6477153,12.205637 8.349074,13.213828"
         id="path3265"
         sodipodi:nodetypes="cc" />
      <path
         style="fill:none;stroke:#000000;stroke-width:0.79375;stroke-linecap:butt;stroke-linejoin:miter;stroke-miterlimit:4;stroke-dasharray:none;stroke-opacity:1"
         d="M 19.227871,9.4528916 C 22.179545,24.13738 5.4167753,17.826385 5.0487373,16.726012"
         id="path3597"
         sodipodi:nodetypes="cc" />
      <path
         style="fill:none;stroke:#000000;stroke-width:0.79375;stroke-linecap:round;stroke-linejoin:miter;stroke-miterlimit:4;stroke-dasharray:none;stroke-opacity:1"
         d="m 14.356097,9.7083043 -3.16609,-8.4573142 v 0"
         id="path6027" />
      <path
         style="fill:none;stroke:#000000;stroke-width:0.79375;stroke-linecap:round;stroke-linejoin:miter;stroke-miterlimit:4;stroke-dasharray:none;stroke-opacity:1"
         d="m 16.958394,1.2323641 2.269477,8.2205275"
         id="path6029" />
      <g
         id="g6390"
         transform="rotate(-55.242434,7.4503008,22.123208)">
        <ellipse
           style="fill:none;stroke:#000000;stroke-width:0.706102;stroke-linecap:round;stroke-linejoin:round;stroke-miterlimit:4;stroke-dasharray:none;stroke-opacity:1"
           id="path1692"
           cx="7.955946"
           cy="22.387791"
           rx="2.1140363"
           ry="2.4261677" />
        <ellipse
           style="fill:#000000;fill-opacity:1;stroke:#000000;stroke-width:0.760044;stroke-linecap:round;stroke-linejoin:round;stroke-miterlimit:4;stroke-dasharray:none;stroke-opacity:1"
           id="ellipse4266"
           cx="7.9584699"
           cy="22.387791"
           rx="0.41101894"
           ry="0.44307435" />
        <ellipse
           style="fill:#000000;fill-opacity:1;stroke:#000000;stroke-width:0.760238;stroke-linecap:round;stroke-linejoin:round;stroke-miterlimit:4;stroke-dasharray:none;stroke-opacity:1"
           id="ellipse4322"
           cx="7.955946"
           cy="22.387791"
           rx="0.39845183"
           ry="0.4572818" />
      </g>
      <g
         id="g6398"
         transform="rotate(-55.242434,12.216636,13.014268)">
        <ellipse
           style="fill:none;stroke:#000000;stroke-width:0.706102;stroke-linecap:round;stroke-linejoin:round;stroke-miterlimit:4;stroke-dasharray:none;stroke-opacity:1"
           id="ellipse6392"
           cx="7.955946"
           cy="22.387791"
           rx="2.1140363"
           ry="2.4261677" />
        <ellipse
           style="fill:#000000;fill-opacity:1;stroke:#000000;stroke-width:0.760044;stroke-linecap:round;stroke-linejoin:round;stroke-miterlimit:4;stroke-dasharray:none;stroke-opacity:1"
           id="ellipse6394"
           cx="7.9584699"
           cy="22.387791"
           rx="0.41101894"
           ry="0.44307435" />
        <ellipse
           style="fill:#000000;fill-opacity:1;stroke:#000000;stroke-width:0.760238;stroke-linecap:round;stroke-linejoin:round;stroke-miterlimit:4;stroke-dasharray:none;stroke-opacity:1"
           id="ellipse6396"
           cx="7.955946"
           cy="22.387791"
           rx="0.39845183"
           ry="0.4572818" />
      </g>
      <path
         style="fill:#d40000;fill-opacity:1;stroke:#000000;stroke-width:0.122705;stroke-linecap:round;stroke-linejoin:round;stroke-miterlimit:4;stroke-dasharray:none;stroke-opacity:1"
         d="M 12.127375,18.567021 C 10.033069,18.385316 7.8498813,17.812152 6.236269,17.020396 5.3754937,16.598037 5.1528503,16.355628 5.20686,15.899601 c 0.068985,-0.582472 0.5767112,-1.376205 1.2087349,-1.889627 0.345826,-0.28093 0.5922184,-0.41525 0.9381432,-0.511426 0.384181,-0.106812 0.5412327,-0.0638 1.0808784,0.29604 0.7502885,0.500293 1.5085706,0.829661 2.2016505,0.95631 0.37632,0.06877 1.109154,0.05946 1.450206,-0.01842 0.624124,-0.142519 1.147336,-0.421131 1.602125,-0.853137 0.532707,-0.506019 0.893058,-1.140237 1.107552,-1.949292 0.08977,-0.338609 0.103752,-0.477793 0.104984,-1.045063 10e-4,-0.477277 -0.01797,-0.742181 -0.07023,-0.9786007 -0.03941,-0.178295 -0.732843,-2.0889432 -1.540971,-4.245885 -0.808129,-2.1569418 -1.469325,-3.9390711 -1.469325,-3.9602878 0,-0.023731 0.928093,-0.038576 2.411628,-0.038576 h 2.411628 l 0.04676,0.1738326 c 0.02572,0.095608 0.515012,1.8671659 1.087319,3.9367954 1.272943,4.6033415 1.365264,5.0691545 1.363282,6.8785365 -0.004,3.611296 -1.717731,5.56116 -5.187834,5.902503 -0.392748,0.03863 -1.447527,0.04656 -1.826021,0.01372 z"
         id="path6511" />
      <path
         style="fill:#d40000;fill-opacity:1;stroke:#000000;stroke-width:0.122705;stroke-linecap:round;stroke-linejoin:round;stroke-miterlimit:4;stroke-dasharray:none;stroke-opacity:1"
         d="m 7.7568141,23.640345 c -0.744492,-0.180223 -1.4469845,-0.821963 -1.6620709,-1.518332 -0.360984,-1.16873 0.4510693,-2.162685 1.7060571,-2.088216 1.1645955,0.0691 2.1443426,1.096952 2.0902755,2.192897 -0.050757,1.028841 -1.0338835,1.680025 -2.1342617,1.413651 z m 0.5361411,-1.012243 c 0.5774097,-0.209447 0.6709801,-0.962394 0.1726115,-1.388979 -0.1953752,-0.167234 -0.3553,-0.211999 -0.654621,-0.183238 -0.6755892,0.06491 -0.9267793,0.863379 -0.4285808,1.362338 0.2429772,0.243348 0.5947812,0.324434 0.9105903,0.209879 z"
         id="path6550" />
      <path
         style="fill:#d40000;fill-opacity:1;stroke:#000000;stroke-width:0.122705;stroke-linecap:round;stroke-linejoin:round;stroke-miterlimit:4;stroke-dasharray:none;stroke-opacity:1"
         d="m 17.289483,23.640345 c -0.744492,-0.180223 -1.446985,-0.821963 -1.662071,-1.518332 -0.360984,-1.16873 0.451069,-2.162685 1.706057,-2.088216 1.164595,0.0691 2.144343,1.096952 2.090275,2.192897 -0.05076,1.028841 -1.033883,1.680025 -2.134261,1.413651 z m 0.536141,-1.012243 c 0.57741,-0.209447 0.67098,-0.962394 0.172611,-1.388979 -0.195375,-0.167234 -0.3553,-0.211999 -0.654621,-0.183238 -0.675589,0.06491 -0.926779,0.863379 -0.42858,1.362338 0.242977,0.243348 0.594781,0.324434 0.91059,0.209879 z"
         id="path6589" />
    </g>
  </g>
</svg>
